<svg xmlns="http://www.w3.org/2000/svg" width="200" height="200"><path fill="#F6F4EF" d="M86.067 0h26.577c2.045.498 4.073.977 6.074 1.638 12.135 4.007 21.744 11.38 27.704 22.832 1.495 2.873 2.686 6.855 5.42 8.744 6.785 4.69 16.682.84 22.483 8.412 1.7 2.22 3.036 4.813 4.47 7.208 1.343 2.245 3.129 4.607 3.95 7.106.412 1.255.5 2.668.307 3.973-.421 2.873-4.6 7.632-6.916 9.385.984.297 2.011.562 2.952.978 1.694.747 3.424 1.905 4.09 3.717.558 1.523.252 3.207-.45 4.623-2.36 4.754-8.12 9.37-12.836 11.708-1.205.597-2.446 1.04-3.714 1.474.45 1.499.717 3.06.873 4.616.681-1.629 1.708-3.129 3.057-4.275a12.34 12.34 0 0 1 9.053-2.814c4.75.428 9.534 3.374 12.543 6.995 4.065 4.89 6.481 11.642 5.878 18.019-.79 8.317-4.86 14.254-11.132 19.472 3.158 2.85 5.43 7.272 6.273 11.396a22.8 22.8 0 0 1-3.4 17.007c-4.56 6.926-11.097 10.631-19.109 12.273.345 1.734.357 3.968.197 5.73-.345 3.78-1.917 7.67-4.917 10.113-2.165 1.764-5.143 2.895-7.916 3.145-2.534.23-5.176.07-7.725.055l-14.754-.121-41.45-.016-36.54.058-10.943.035c-2.14.012-4.36.167-6.486-.056-4.257-.448-8.203-1.882-10.937-5.313-3.434-4.308-2.907-9.73-2.358-14.834-4.712-1.465-9.356-3.762-12.931-7.223-4.356-4.215-7.132-10.316-7.198-16.392-.068-6.232 2.587-11.734 6.884-16.15-.88-.919-1.856-1.753-2.755-2.656a31.4 31.4 0 0 1-3.255-3.923c-3.814-5.402-5.31-12.604-4.159-19.108 1.075-6.075 4.563-11.85 9.668-15.372 3.36-2.317 7.844-3.982 11.96-3.191 2.953.567 5.778 2.25 7.475 4.757 1.578 2.33 2.089 5.278 1.55 8.034-.711 3.63-2.884 5.533-5.8 7.5q.081.276.182.547c.793 2.132 2.744 3.871 4.782 4.792 5.215 2.355 10.715 1.113 15.844-.81-4.413-9.278-5.921-16.86-4.748-27.125-2.493-1.362-4.942-2.712-7.338-4.243-8.564-5.475-17.951-13.05-20.21-23.495-1.5-6.941.452-15.261 4.294-21.21 1.662-2.573 4.139-4.815 7.219-5.444 2.31-.472 4.54.007 6.25 1.675.627.612 1.228 1.37 1.963 1.847q.038.025.077.048a18 18 0 0 0 3.777-.382c2.756-.59 6.022-1.789 7.665-4.234.826-1.23 1.395-2.68 2.03-4.017 1.152-2.424 2.37-4.798 3.839-7.046C61.046 8.836 72.777 2.798 86.067 0m63.766 108.454a42 42 0 0 1-2.776 5.605q1.284.471 2.579.909c5.563 1.827 11.368 3.288 16.912.454 2.556-1.307 4.411-3.197 5.374-5.923-1.84-1.168-3.506-2.394-4.54-4.374-.224-.432-.502-1.452-.847-1.744-.793 3.116-2.068 7.28-5.009 9.02-1.438.85-2.996.928-4.578.497-2.665-.726-5.06-2.66-7.115-4.444"/><path fill="#011323" d="M96.26 3.753c1.464-.077 2.946-.058 4.413-.046 12.21.107 25.418 4.276 34.168 13.107 2.597 2.622 4.694 5.662 6.536 8.847 2.307 3.988 3.969 9.169 7.811 11.8 1.84 1.26 3.873 2.08 6.035 2.594 3.685.875 9.048.84 12.288 2.212a5.3 5.3 0 0 1 1.776 1.224c1.926 1.99 4.44 6.603 6.002 9.13.88 1.426 1.966 2.875 2.663 4.391.222.482.403.986.374 1.525-.126 2.302-5.969 7.616-7.756 9.166-1.096.95-2.298 1.797-3.341 2.804l-.103.1c2.91.558 5.298 2.14 7.965 3.288.993.427 2.138.636 3.06 1.201.25.152.317.163.386.443-.25 1.242-2.622 3.924-3.52 4.855-4.203 4.357-9.67 7.042-15.746 7.15.362.532.698 1.07.997 1.641 3.209 6.117 1.971 11.548-.052 17.716-.159.482-.365.938-.845 1.165-.593.28-1.267.146-1.848-.096-3.505-1.463-8.394-6.622-9.873-10.064-1.241 7.146-3.562 13.004-8.243 18.62 4.69 1.422 9.294 3.26 14.059 4.41 5.777 1.392 12 .821 17.13-2.356 2.881-1.785 5.595-4.735 6.37-8.118.991-4.329-3.115-4.235-4.844-7.073a5.84 5.84 0 0 1-.672-4.465c.42-1.618 1.552-3.013 2.99-3.843 1.813-1.047 4.092-1.216 6.094-.671 4.233 1.15 7.566 4.647 9.661 8.364 2.611 4.631 3.457 9.882 1.98 15.027-1.511 5.269-5.3 10.02-9.752 13.15-1.8 1.265-3.727 2.266-5.644 3.335 1.985.372 3.91 1.295 5.523 2.501 3.332 2.493 5.476 6.367 6.03 10.474.668 4.953-.867 9.702-3.875 13.635-4.91 6.417-12.077 8.624-19.714 9.649.512 2.533.962 5.327.984 7.914.023 2.736-.624 5.506-2.605 7.503-1.183 1.193-2.78 1.924-4.413 2.255-3.469.702-8.47.408-12.132.412l-19.307.013-58.868-.004-18.135.002c-3.663-.004-7.42.15-11.064-.223-2.594-.267-4.986-1.175-6.658-3.257-3.258-4.056-1.497-10.813-.958-15.582-3.58-.704-6.903-1.689-10.088-3.511-4.531-2.593-8.509-7.006-9.894-12.118-1.18-4.355-.71-8.57 1.544-12.486 2.181-3.79 5.642-6.32 9.835-7.439-1.913-.957-3.771-1.966-5.511-3.217-4.929-3.546-8.957-9.305-9.901-15.36a19.91 19.91 0 0 1 3.715-15.08c2.302-3.101 5.79-5.863 9.707-6.422 1.92-.274 3.952.018 5.523 1.223 1.393 1.068 2.212 2.556 2.435 4.294.316 2.465-.929 4.453-2.896 5.824-.872.608-1.913 1.16-2.554 2.028-.644.87-.746 1.979-.58 3.02.47 2.944 2.698 5.765 5.068 7.46 1.455 1.04 3.086 1.766 4.79 2.297 5.534 1.723 10.632.61 15.97-1.146 2.386-.785 4.74-1.792 7.227-2.215-1.08-1.496-2.13-3.016-3.056-4.614-4.621-7.979-6.218-19.036-3.833-27.954-1.675-.92-3.438-1.692-5.12-2.607a75 75 0 0 1-12.235-8.268C26.47 68.862 21.237 63.61 20.638 56.36c-.381-4.623.68-8.824 2.702-12.952.636-1.298 1.311-2.578 2.257-3.68.958-1.116 2.328-2.176 3.86-2.236 1.033-.04 1.56 2.078 2.328 2.77 1.298 1.17 4.006.997 5.61.887 5.185-.358 10.904-1.861 13.96-6.413 1.313-1.956 2.212-4.196 3.276-6.292a44.6 44.6 0 0 1 6.227-9.37C67.81 11.134 78.162 6.437 88.42 4.61c2.597-.463 5.21-.685 7.839-.857"/><path fill="#F64B64" d="M64.805 119.65a16 16 0 0 1-1.322-.838c-6.068-4.2-9.725-11.423-11.022-18.535-1.57-8.612-.188-18.625 4.877-25.906 5.247-7.544 15.34-13.558 24.328-15.194.702 1.077 1.705 2.065 2.6 2.987 6.56 6.757 15.62 11.11 24.323 14.362-.107.384-.19.777-.281 1.165-.676 4.015-.246 8.254 2.162 11.644a14.7 14.7 0 0 0 9.598 6.045c3.538.588 7.384-.078 10.32-2.21a12.22 12.22 0 0 0 4.935-8.088c.07-.466.136-.938.143-1.41l-.025-1.931c2.687.715 5.445 1.134 8.133 1.823 1.38 7.027 1.263 13.635-1.186 20.436-.962 2.672-2.156 5.172-3.742 7.534-2.052 3.057-4.723 6.1-7.825 8.116-2.54-.208-5.474.004-7.715 1.339l-.065.175c7.866.82 16.102 3.207 21.26 9.58a23.4 23.4 0 0 1 4.496 9.021l.042.122c1.554 4.726 1.191 12.164-1.119 16.554-.913 1.735-2.327 3.44-4.287 3.996-1.085.308-2.22.148-3.2-.4-3.34-1.871-1.696-6.854-1.593-9.84.042-1.228-.164-2.481-.485-3.663-1.959-7.21-9.08-11.31-16.041-12.445-2.831-.462-5.82-.363-8.554-1.31-1.664-.576-3.183-1.607-4.53-2.722-.749-.621-1.478-1.292-2.33-1.768l-.116-.062c.381 1.871.606 3.781.852 5.674l-5.397-.027-12.67.01-4.842.005c.233-1.995.573-4.038.99-6.004-2.102 1.556-3.598 3.603-6.073 4.673-2.593 1.122-5.556 1.076-8.289 1.688-7.573 1.697-14.327 7.033-15.517 15.048a13.5 13.5 0 0 0-.129 3.043c.214 2.696 1.184 5.87-1.396 7.862a3.61 3.61 0 0 1-2.843.68c-1.41-.246-2.568-1.231-3.346-2.391-2.923-4.36-2.872-10.877-1.86-15.842q.092-.471.21-.936c.312-.98.52-1.996.834-2.978.761-2.32 1.841-4.52 3.21-6.541 5.53-8.261 13.221-9.566 22.138-11.324a.5.5 0 0 0-.184-.266c-1.258-1.092-5.849-1.135-7.467-.951"/><path fill="#BC2D53" d="M64.805 119.65a16 16 0 0 1-1.322-.838c-6.068-4.2-9.725-11.423-11.022-18.535-1.57-8.612-.188-18.625 4.877-25.906 5.247-7.544 15.34-13.558 24.328-15.194.702 1.077 1.705 2.065 2.6 2.987 6.56 6.757 15.62 11.11 24.323 14.362-.107.384-.19.777-.281 1.165-6.533-2.575-12.219-5.16-18.12-9.015-3.294-2.153-6.345-4.338-8.559-7.664l-.1.049c-.96.45-1.978.25-2.989.446-1.004.195-2.077.69-3.037 1.05-2.109.792-4.141 1.91-6.067 3.075-1.123.68-2.29 1.347-3.348 2.123-4.3 3.153-7.817 7.605-9.69 12.608-2.76 7.373-2.423 16.603.887 23.771 3.016 6.531 8.336 12.127 15.167 14.62 1.698.62 3.412.992 5.188 1.29-1.695.393-3.46.587-5.184.823a.5.5 0 0 0-.184-.266c-1.258-1.092-5.849-1.135-7.467-.951"/><path fill="#BC2D53" d="M105.023 122.897c1.134 1.518 2.657 2.58 4.28 3.526 4.219 2.46 8.844 3.564 13.538 4.717 1.88.46 3.79.867 5.607 1.548 2.272.853 4.529 2.143 6.376 3.72 3.724 3.182 6.006 7.689 6.171 12.592.052 1.523-.213 3.063-.058 4.58.081.796.282 2.02 1.255 2.16a3.7 3.7 0 0 0 2.815-.781c2.12-1.738 2.863-5.504 3.052-8.08.2-2.722-.178-5.725-.678-8.409.359.498.692 1.023 1.164 1.422l.163.024.09-.15.04.12c1.555 4.727 1.192 12.165-1.118 16.555-.913 1.735-2.327 3.44-4.287 3.996-1.085.308-2.22.148-3.2-.4-3.34-1.871-1.696-6.854-1.593-9.84.042-1.228-.164-2.481-.485-3.663-1.959-7.21-9.08-11.31-16.041-12.445-2.831-.462-5.82-.363-8.554-1.31-1.664-.576-3.183-1.607-4.53-2.722-.749-.621-1.478-1.292-2.33-1.768l-.116-.062c.381 1.871.606 3.781.852 5.674l-5.397-.027c.408-.047.813-.095 1.224-.11 1.243-1.023 1.735-2.108 1.896-3.694.24-2.36-.02-4.812-.136-7.173"/><path fill="#BC2D53" d="M51.768 155.85a3.3 3.3 0 0 0 .514-.418c1.438-1.469 1.181-6.387 1.695-8.515.946-3.922 3.272-7.57 6.235-10.272 4.3-3.922 8.787-4.805 14.13-6.437 4.557-1.392 9.207-3.35 12.646-6.718.053 2.588-.711 7.225.84 9.375.388.537.878.92 1.54 1.019l-4.841.005c.233-1.995.573-4.038.99-6.004-2.102 1.556-3.598 3.603-6.073 4.673-2.593 1.122-5.556 1.076-8.289 1.688-7.573 1.697-14.327 7.033-15.517 15.048a13.5 13.5 0 0 0-.129 3.043c.214 2.696 1.184 5.87-1.396 7.862a3.61 3.61 0 0 1-2.843.68c-1.41-.246-2.568-1.231-3.346-2.391-2.923-4.36-2.872-10.877-1.86-15.842q.092-.471.21-.936l.05.07q.034.052.068.103c.348.52.172 1.7.169 2.338-.019 3.108-.082 8.46 2.306 10.766.878.847 1.756.905 2.901.863"/><path fill="#BC2D53" d="M135.44 81.741c2.688.715 5.446 1.134 8.134 1.823 1.38 7.027 1.263 13.635-1.186 20.436-.962 2.672-2.156 5.172-3.742 7.534-2.052 3.057-4.723 6.1-7.825 8.116-2.54-.208-5.474.004-7.715 1.339l-.065.175c-2.334-.202-4.668-.495-6.998-.743l.403-.05c3.124-.358 6.421-1.497 9.199-2.943a29.67 29.67 0 0 0 14.395-17.24c.424-1.334.789-2.684 1.01-4.068.308-1.926.811-9.507-.191-10.961-.48-.697-4.43-1.426-5.393-1.487z"/><path fill="#011323" d="M84.75 92.795c1.896-.162 3.559.588 5.387.928a37 37 0 0 0 6.223.635 28.4 28.4 0 0 0 5.949-.504c1.62-.314 3.268-.95 4.934-.875 1.081.05 1.963.514 2.668 1.335 1.472 1.714 1.526 4.559 1.388 6.691-.317 4.907-2.266 9.3-5.965 12.563-1.407 1.297-3.318 2.254-5.13 2.826a14.25 14.25 0 0 1-10.97-.927c-3.64-1.939-6.22-5.446-7.403-9.354-.964-3.188-1.573-8.124.14-11.173.659-1.175 1.502-1.797 2.78-2.145"/><path fill="#F64B64" d="M95.87 106.39c2.225-.187 5.102.434 6.872 1.86.542.437.976.986 1.036 1.7.065.76-.31 1.446-.809 1.991-1.553 1.696-4.06 2.456-6.297 2.53-2.296.073-4.649-.395-6.51-1.818-.726-.555-1.419-1.348-1.509-2.296-.059-.618.178-1.176.572-1.642 1.499-1.773 4.485-2.185 6.644-2.325"/><path fill="#011323" d="M71.322 73.216c5.402-.458 10.148 3.562 10.586 8.966s-3.6 10.136-9.005 10.554c-5.378.415-10.08-3.597-10.515-8.973s3.56-10.092 8.934-10.547"/><path fill="#F6F4EF" d="M69.58 75.99c.753-.09 1.468-.075 2.166.258.685.322 1.208.91 1.447 1.629.278.82.172 1.723-.208 2.492-.52 1.054-1.394 1.66-2.483 2.013-.713.059-1.362.093-2.046-.18a2.82 2.82 0 0 1-1.616-1.642c-.315-.852-.18-1.825.231-2.62.54-1.045 1.425-1.601 2.509-1.95"/><path fill="#FEBDBB" d="M59.978 126.377c.125-.008.249-.018.374-.013.343.014.697.092.909.39.155.217.179.457.127.712-.248 1.22-3.033 2.602-4.02 3.144-.367.15-.645.118-1.027.069-.13-.102-.204-.122-.255-.29-.158-.514.105-1.062.375-1.49.774-1.228 2.121-2.176 3.517-2.522"/><path fill="#FEBDBB" d="M136.322 126.76c.118.005.231.01.348.027 1.189.178 2.632 1.165 3.33 2.146.231.327.407.732.325 1.14-.08.393-.354.549-.667.752-.092-.012-.184-.023-.275-.041-1.133-.23-3.01-1.48-3.636-2.458-.165-.257-.272-.56-.177-.866.119-.378.428-.53.752-.7"/><path fill="#FEBDBB" d="M130.064 124.146c.339.014.701.037 1.035.096.96.17 2.553.87 3.103 1.703.093.14.154.324.099.488-.127.375-.436.524-.773.665a21 21 0 0 1-.977-.2c-.906-.213-2.791-.593-3.237-1.52-.154-.319-.074-.589.06-.887.225-.216.399-.268.69-.345"/><path fill="#FEBDBB" d="M123.503 123.065c1.165-.11 2.797-.123 3.743.65.065.14.146.218.097.376-.12.387-.532.572-.866.742a4.5 4.5 0 0 1-.783.086c-.755.034-2.345-.158-2.826-.758-.173-.215-.138-.272-.09-.524.223-.277.41-.407.725-.572"/><path fill="#FEBDBB" d="M142.754 133.169c.61.065.951.28 1.364.735.532.587.988 1.454.912 2.27-.034.373-.223.529-.487.757l-.044-.002c-.47-.026-.725-.095-1.066-.432-.626-.618-1.132-1.598-1.125-2.492.003-.398.18-.578.446-.836"/><path fill="#FEBDBB" d="M50.703 136.19c.276.042.489.035.689.268.3.35.207.983.102 1.387-.206.797-.638 1.696-1.366 2.12-.224-.1-.464-.203-.623-.397-.191-.233-.243-.515-.232-.807.036-.977.72-1.951 1.43-2.57"/><path fill="#FEBDBB" d="M53.472 131.603c.23.076.487.185.643.383.22.277.202.65.117.972-.205.782-.8 1.5-1.483 1.91-.24-.047-.49-.116-.658-.305-.213-.24-.234-.553-.178-.854.159-.86.848-1.65 1.559-2.106"/><path fill="#FEBDBB" d="M64.725 124.927c.217-.014.448-.04.664-.023.234.017.338.098.485.266.01.212.008.296-.1.489-.364.655-.912.902-1.591 1.12-.237.035-.56.056-.793-.032-.27-.104-.303-.18-.432-.418a.96.96 0 0 1 .192-.613c.397-.577.928-.665 1.575-.789"/><path fill="#FEBDBB" d="M48.573 142.905c.136.05.27.096.373.204.199.206.256.538.276.813.047.672-.122 1.395-.568 1.904-.104-.04-.258-.09-.35-.158-.28-.21-.393-.59-.42-.924-.06-.714.228-1.321.69-1.839"/><path fill="#003354" d="M49.04 49.57a25.2 25.2 0 0 0 11.77-9.236c1.683-2.452 2.901-5.186 4.426-7.733 4.701-7.85 10.82-12.385 19.42-15.337 1.605-.552 3.223-1.071 4.89-1.404 4.68-.935 10.272-.793 15.007-.326 9.102.898 17.742 3.99 23.895 11.061 1.024 1.177 2.027 2.42 2.846 3.75 1.271 2.063 2.192 4.301 3.33 6.434 2.44 4.57 6.29 8.73 10.984 11.027 1.163.452 2.302.975 3.48 1.389 3.355 1.179 7.278 2.034 10.835 1.989q1.313-.025 2.623-.099c-.563 1.334-1.106 2.696-1.836 3.95-2.015 3.463-5.38 6.648-9.114 8.178-4.839 1.982-9.498 2.016-14.32-.03-4.706-1.998-9.106-4.535-13.89-6.366-3.672-1.406-8.118-2.867-11.982-3.543-1.665-.292-3.402-.375-5.084-.576-3.16-.38-6.302-.68-9.488-.655-9.062.072-17.891 2.582-26.242 5.935-1.277.513-2.464 1.26-3.726 1.821-7.02 3.117-14.78 5.8-22.289 2.608-1.839-.782-3.902-1.999-5.34-3.407-.621-.609-1.147-1.315-1.742-1.95-1.388-1.486-2.606-2.863-3.38-4.782a19 19 0 0 1-.336-.922l4.119.138c3.81.06 7.527-.796 11.145-1.915"/><path fill="#001F35" d="M37.896 51.484a.8.8 0 0 0 .137.308c.543.805 1.305 1.518 1.967 2.226 3.227 3.446 6.833 5.624 11.657 5.93 1.71.11 3.567.046 5.253-.296 1.293-.262 2.584-.785 3.841-1.19 4.509-1.451 8.883-3.256 13.345-4.829 3.853-1.358 7.944-2.48 12.003-2.988 3.207-.4 6.517-.517 9.745-.555 9.853-.117 19.538.926 28.852 4.321 1.857.678 3.73 1.39 5.56 2.139 3.286 1.343 6.727 2.876 10.253 3.454.825.135 1.67.131 2.505.133a22.1 22.1 0 0 0 13.008-4.188c1.065-.768 4.63-3.514 4.813-4.644l-.912-.121q1.313-.025 2.623-.099c-.563 1.334-1.106 2.696-1.836 3.95-2.015 3.463-5.38 6.648-9.114 8.178-4.839 1.982-9.498 2.016-14.32-.03-4.706-1.998-9.106-4.535-13.89-6.366-3.672-1.406-8.118-2.867-11.982-3.543-1.665-.292-3.402-.375-5.084-.576-3.16-.38-6.302-.68-9.488-.655-9.062.072-17.891 2.582-26.242 5.935-1.277.513-2.464 1.26-3.726 1.821-7.02 3.117-14.78 5.8-22.289 2.608-1.839-.782-3.902-1.999-5.34-3.407-.621-.609-1.147-1.315-1.742-1.95-1.388-1.486-2.606-2.863-3.38-4.782a19 19 0 0 1-.336-.922z"/><path fill="#03527E" d="M49.04 49.57a25.2 25.2 0 0 0 11.77-9.236c1.683-2.452 2.901-5.186 4.426-7.733 4.701-7.85 10.82-12.385 19.42-15.337 1.605-.552 3.223-1.071 4.89-1.404 4.68-.935 10.272-.793 15.007-.326 9.102.898 17.742 3.99 23.895 11.061 1.024 1.177 2.027 2.42 2.846 3.75 1.271 2.063 2.192 4.301 3.33 6.434 2.44 4.57 6.29 8.73 10.984 11.027-.62.275-1.924-.118-2.537-.36-6.291-2.49-8.96-9.664-12.455-14.879-6.505-9.707-16.52-14.522-28.026-15.125-7.167-.375-13.272.187-19.935 3.004-4.71 1.991-8.927 4.809-12.336 8.637-6.272 7.043-10.17 19.509-21.047 20.587z"/><path fill="#F6F4EF" d="M97.625 21.818c1.289-.157 2.824.039 4.062.42 2.846.878 4.804 2.682 6.184 5.28l1.673-1.238c-.274-.476-.48-.934-.49-1.494a2.53 2.53 0 0 1 .734-1.823c.42-.422 1.002-.705 1.604-.7.673.004 1.272.371 1.72.853.728.783.285 1.41.383 2.286.04.362 1.168.756 1.496 1.02.403.323.71.758.739 1.287.038.699-.345 1.53-.837 2.013-.377.37-.877.58-1.406.574-.887-.011-1.405-.46-1.99-1.054-.987.664-1.937 1.4-2.897 2.103-.042 2.915-.857 5.098-2.876 7.204.64 1.753 2.582 2.696 4.068 3.69.302-.28.606-.587.983-.763.628-.294 1.41-.373 2.055-.09.562.246.934.735 1.135 1.304 1 2.836-1.61 2.7-2.173 3.404-.173.217-.205 1.354-.432 1.786a1.7 1.7 0 0 1-1.115.875c-.686.18-1.49.123-2.09-.277a2.12 2.12 0 0 1-.899-1.45c-.118-.762.1-1.396.547-2.006l.073-.097c-1.332-.872-3.165-1.826-3.991-3.218-.256-.43-.393-.992-.548-1.468-.041 1.351.314 5.21-.56 6.045-.89.851-2.778.606-3.925.594-1.27.014-3.708.351-4.698-.517-1.24-1.088-.742-4.491-.803-6.017-.966 2.575-2.22 3.022-4.386 4.498.396.573.65 1.104.605 1.82a2.3 2.3 0 0 1-.8 1.598 2.3 2.3 0 0 1-1.658.549 2.1 2.1 0 0 1-1.527-.814c-.485-.635-.578-1.208-.46-1.981-.334-.094-.697-.18-1.008-.335a2.56 2.56 0 0 1-1.255-1.496 2.27 2.27 0 0 1 .22-1.81c.45-.744 1.108-.995 1.902-1.203.963.2 1.472.453 2.137 1.191 1.365-1.11 3.334-2.147 4.03-3.811-2.036-1.858-2.73-4.228-2.96-6.89l-2.93-2.15c-.236.235-.464.46-.771.6-.662.302-1.508.355-2.182.062-.53-.23-.873-.637-1.072-1.173-1.073-2.894 1.772-2.623 2.017-3.473.165-.573-.093-1.183.206-1.79.254-.519.919-.956 1.459-1.119a2.04 2.04 0 0 1 1.655.231c.564.35.965.91 1.111 1.559.202.92-.111 1.591-.584 2.348l1.76 1.248c.405-.963.89-1.84 1.558-2.647 1.823-2.2 4.42-3.26 7.207-3.538"/><path fill="#001F35" d="M93.933 29.707c.589.017 1.226.122 1.743.418.753.433 1.205 1.16 1.396 1.995.243 1.066.156 2.268-.453 3.201-.567.868-1.278 1.198-2.26 1.39-.59-.007-1.15-.138-1.663-.439-.791-.464-1.306-1.255-1.51-2.14-.231-1.008-.126-2.243.477-3.11.56-.805 1.336-1.133 2.27-1.315"/><path fill="#001F35" d="M102.251 29.705a3.6 3.6 0 0 1 1.695.265c.71.31 1.247.892 1.522 1.614.377.995.43 2.352-.04 3.326-.445.923-1.159 1.318-2.089 1.617-.733.104-1.39.13-2.06-.233-.783-.423-1.224-1.19-1.436-2.033-.269-1.066-.249-2.347.351-3.299.508-.803 1.173-1.066 2.057-1.257"/><path fill="#001F35" d="M98.378 35.898c.089.033.107.033.186.093.514.391 1.722 1.971 1.8 2.647.029.249-.006.479-.184.668-.345.367-1.06.283-1.523.292-.664-.027-1.46.02-2.087-.193-.099-.122-.167-.157-.171-.324-.028-.956 1.38-2.472 1.979-3.183"/><path fill="#003354" d="M94.944 42.207c.327-.023.698-.07 1.022-.027.25.033.503.187.634.404.235.388.047 1.083-.08 1.489-.314.042-.722.118-1.035.066a.84.84 0 0 1-.59-.392c-.24-.382-.066-1.132.05-1.54"/><path fill="#003354" d="M97.762 42.096c.32-.005.772-.045 1.05.142.214.144.368.391.427.639.085.36-.06.895-.266 1.194-.26.037-.58.1-.841.043-.22-.048-.402-.232-.499-.428-.224-.453-.04-1.145.129-1.59"/><path fill="#003354" d="M100.425 42.102c.285-.016.725-.087.989.03.27.122.49.405.562.689.077.303-.066.924-.242 1.173-.268.017-.611.064-.875.018a.65.65 0 0 1-.413-.257c-.282-.419-.082-1.176-.021-1.653"/><path fill="#FEC123" d="M52.537 38.75c.786-1.017 1.566-1.996 2.242-3.094 1.328-2.156 2.288-4.496 3.468-6.731 2.498-4.734 5.874-8.965 10.133-12.23C79.052 8.51 94.487 5.882 107.588 7.64c9.066 1.216 18.589 5.197 25.054 11.817 1.856 1.9 3.467 4.12 4.855 6.38 2.39 3.89 3.8 7.962 6.597 11.631.853.9 1.717 1.825 2.714 2.566 5.35 3.977 12.702 4.327 19.111 4.919.203.208.42.413.613.632 1.657 1.835 2.908 4.109 4.226 6.194 1.35 2.136 2.768 4.246 4.059 6.418-.774 1.404-2.534 3.179-3.686 4.325-1.398 1.39-7.736 7.16-9.19 7.586-.686.2-1.432.258-2.134.401-.822.168-1.571.464-2.353.76 4.882-3.947 9.699-8.257 13.78-13.036-1.667-2.323-3.195-4.76-4.779-7.143-.652-.982-1.271-2.034-2.006-2.953-7.292.501-16.373-1.36-21.942-6.22-3.777-3.297-5.313-8.21-7.858-12.39-8.438-13.86-24.039-18.308-39.483-17.334-11.413.72-21.272 4.562-28.944 13.282-3.01 3.42-4.92 7.759-7.126 11.713-4.298 7.703-12.119 10.682-20.519 11.211-3.479.22-6.12-.12-9.39-1.325-.205.548-.394 1.112-.62 1.651-.342 1.082-.697 2.176-.877 3.299-.309 1.875-.592 3.942-.109 5.813 2.047 7.924 15.878 17.448 22.787 21.498-.2.388-.375.792-.56 1.188a65 65 0 0 1-5.09-2.569c-5.997-3.312-14.503-9.266-18.216-15.057a15.7 15.7 0 0 1-1.815-4.065c-1.487-5.24-.168-10.55 2.452-15.201.342-.61.757-1.194 1.137-1.782 1.647 1.615 3.423 2.501 5.728 2.727 4.791.47 10.827-.602 14.957-3.057 1.32-.784 2.396-1.807 3.576-2.77"/><defs><linearGradient id="a" x1="507.374" x2="511.161" y1="413.198" y2="56.927" gradientUnits="userSpaceOnUse"><stop offset="0" stop-color="#BE5201"/><stop offset="1" stop-color="#FF9C02"/></linearGradient></defs><path fill="url(#a)" d="M138.952 223.389c7.184 10.878 19.337 14.335 31.592 16.841 26.168 5.351 70.025-4.011 91.703-18.422 23.616-15.699 38.293-41.367 52.281-65.236 4.501-7.68 8.767-15.48 13.995-22.705 13.312-18.397 31.775-32.876 51.22-44.224 19.101-11.147 40.799-20.76 62.248-26.246 39.328-10.059 88.943-8.812 128.761-.948 44.564 8.802 97.424 42.491 122.874 80.3 8.645 12.843 14.729 26.88 22.628 40.078a116.55 116.55 0 0 0 77.501 54.681c6.507 1.33 13.245 2.278 19.885 2.55 9.476.389 30.627-.815 38.571-6.326.15-.104.288-.225.433-.337 8.485 9.398 14.889 21.037 21.639 31.714 6.914 10.937 14.171 21.738 20.78 32.858-3.958 7.19-12.974 16.279-18.869 22.144-7.159 7.121-39.607 36.658-47.056 38.842-3.51 1.029-7.33 1.323-10.922 2.055-4.213.86-8.047 2.374-12.048 3.895 24.997-20.213 49.655-42.282 70.556-66.748-8.537-11.896-16.364-24.375-24.471-36.574-3.342-5.029-6.509-10.414-10.27-15.12-37.335 2.568-83.833-6.966-112.344-31.847-19.342-16.879-27.204-42.036-40.232-63.434-43.205-70.964-123.081-93.74-202.157-88.753-58.432 3.685-108.913 23.357-148.193 68.006-15.408 17.514-25.189 39.723-36.485 59.969-22.005 39.439-62.047 54.693-105.056 57.403-17.813 1.122-31.338-.614-48.078-6.785-1.052 2.807-2.016 5.692-3.174 8.454-1.751 5.54-3.571 11.14-4.492 16.889-1.581 9.601-3.029 20.185-.555 29.765 10.478 40.571 81.292 89.331 116.668 110.068-1.022 1.989-1.92 4.054-2.863 6.081a334 334 0 0 1-26.069-13.151c-30.699-16.956-74.25-47.442-93.263-77.091a80.4 80.4 0 0 1-9.294-20.813c-7.613-26.834-.856-54.02 12.556-77.833" transform="scale(.19531)"/><path fill="#F6981D" d="M26.195 54.119c-.088-1.845.379-4.33 1.376-5.906l.12.015c.112.357.07.658.031 1.026.16-.206.31-.39.508-.562l.337.033c-.342 1.082-.697 2.176-.877 3.299l-.404.076c-.113.86-.505 1.42-1.09 2.019"/><path fill="#E47203" d="M27.722 49.254c.16-.206.31-.39.508-.562l.337.033c-.342 1.082-.697 2.176-.877 3.299l-.404.076c.143-.942.222-1.918.436-2.846"/><path fill="#F6F4EF" d="M52.537 38.75c.786-1.017 1.566-1.996 2.242-3.094 1.328-2.156 2.288-4.496 3.468-6.731 2.498-4.734 5.874-8.965 10.133-12.23C79.052 8.51 94.487 5.882 107.588 7.64c9.066 1.216 18.589 5.197 25.054 11.817 1.856 1.9 3.467 4.12 4.855 6.38 2.39 3.89 3.8 7.962 6.597 11.631-.035-.01-.072-.015-.106-.03-1.603-.679-6.727-9.655-8.079-11.68a39 39 0 0 0-3.028-3.985c-5.657-6.466-14.16-10.549-22.514-12.186a63.6 63.6 0 0 0-11.46-1.085c-5.372-.061-10.564.407-15.717 2.033-5.524 1.742-10.1 4.287-14.529 8.023-2.132 1.8-4.056 3.69-5.673 5.976-2.498 3.53-4.523 7.314-7.189 10.744-.758.976-2.242 2.92-3.262 3.471"/><path fill="#9CB8C8" d="M150.744 134.44q.567 0 1.135.03c1.654.09 3.129.487 4.255 1.797.497.578.701 1.57.84 2.306.382 2.024.592 4.097.878 6.138l1.816 13.134 1.722 12.09c.398 2.711 1.245 6.41.982 9.08-.148 1.504-.739 3.01-1.953 3.969-1.18.931-2.644 1.19-4.103 1.27-3.272.18-6.58.101-9.856.1l-15.332.007-48.883.003-29.243.005-8.346.001c-1.843 0-3.752.09-5.581-.16-1.596-.217-3.062-.823-4.036-2.173-.776-1.075-1.027-2.564-1.024-3.866.005-2.374.445-4.824.806-7.166l1.285-8.31c1.18-7.763 2.158-15.58 3.508-23.313.203-1.267.484-2.451 1.444-3.385 1.13-1.1 2.504-1.24 3.996-1.249a24 24 0 0 0-1.063 2.575c-.279.09-.54.193-.767.386-.383.325-.502.854-.607 1.322-.456 2.025-.703 4.147-1.016 6.2l-1.596 10.425-1.862 12.366c-.386 2.57-.87 5.182-1.08 7.767-.1 1.234-.047 2.486.82 3.461.641.722 1.554.954 2.486 1.004 1.893.103 3.83.021 5.727.02l10.553-.002 32.945.002 43.393.002 14.503-.003c2.664-.001 5.348.055 8.01-.028.85-.027 1.995-.053 2.642-.653.79-.733 1.16-1.607 1.199-2.679.059-1.6-.368-3.341-.6-4.925q-.585-4.037-1.133-8.08l-2.072-15.341c-.41-3.142-.731-6.329-1.264-9.451-.087-.51-.195-1.154-.576-1.531-.508-.504-1.29-.458-1.952-.482-.3-.906-.638-1.782-1-2.664"/><path fill="#F6F4EF" d="M160.492 177.706q.024.036.045.074c.19.4.103 1.323-.037 1.74-.364 1.08-1.26 1.899-2.273 2.374-.843.395-1.84.422-2.757.435-7.492.108-15 0-22.494.002l-45.909.002-31.12-.003-9.796-.001c-1.866.002-3.746.056-5.61-.009-.76-.026-1.55-.096-2.263-.378-1.247-.495-2.036-1.366-2.569-2.57-.088-.37-.228-.818-.123-1.196.046-.163.09-.148.222-.225.8.156 1.684 1.62 2.345 2.15l.123.093q.055.045.11.088c.422.313 1.076.35 1.589.403 2.265.235 4.725.026 7.012.024l14.151.01 47.39.016 33.81-.003 9.466-.041c1.642-.003 3.461.205 5.078-.059 1.736-.283 2.68-1.582 3.61-2.926"/><path fill="#F64B64" d="M84.516 57.499c1.405-.296 2.813-.616 4.236-.82 13.47-1.94 29.447.224 40.998 7.777 5.218 3.412 9.978 8.304 12.282 14.174-1.366-.336-2.77-.627-4.118-1.03l-.983-.232a567 567 0 0 0-14.044-3.19c-4.681-1.016-9.421-1.975-13.959-3.535-4.065-1.398-7.973-3.3-11.772-5.299-2.394-1.26-4.878-2.544-7.121-4.057-1.116-.505-2.24-1.443-3.247-2.146-.774-.525-1.521-1.085-2.272-1.642"/><path fill="#FD7186" d="M84.516 57.499c1.405-.296 2.813-.616 4.236-.82 13.47-1.94 29.447.224 40.998 7.777 5.218 3.412 9.978 8.304 12.282 14.174-1.366-.336-2.77-.627-4.118-1.03l-.983-.232c-.476-.976-1.619-1.934-2.395-2.691-.818-.798-1.617-1.649-2.487-2.388-3.43-2.913-7.54-5.253-11.668-7.014-5.676-2.42-13.753-4.124-19.878-4.406-2.027-.093-4.025.021-6.049.09-1.163.04-3.437-.065-4.42.328-1.115-.505-2.239-1.443-3.246-2.146-.774-.525-1.521-1.085-2.272-1.642"/><path fill="#BC2D53" d="M84.516 57.499c1.405-.296 2.813-.616 4.236-.82 13.47-1.94 29.447.224 40.998 7.777 5.218 3.412 9.978 8.304 12.282 14.174-1.366-.336-2.77-.627-4.118-1.03-.029-.134-.025-.13-.077-.284-.365-1.08-1.059-2.153-1.683-3.098-3.198-4.838-7.914-8.375-13.086-10.88-8.865-4.295-19.979-5.8-29.74-5.152-2.098.14-4.55.263-6.54.955-.774-.525-1.521-1.085-2.272-1.642"/><path fill="#F64B64" d="M174.713 100.778c-.118-.868-.078-1.663.498-2.377.57-.708 1.565-1.08 2.45-1.143 2.225-.158 4.323.977 5.921 2.43 1.751 1.593 2.866 3.459 4.013 5.497-.97-.143-1.597.065-2.377.647q-.087.066-.17.136c-.729 1.31-.69 3.342-.298 4.762.074.267.167.525.268.783.667 1.062 1.199 1.756 2.468 2.094-.23.548-.816 1.07-1.243 1.477-1.41.562-2.271 1.421-2.87 2.822-.528 1.238-.788 2.868-.294 4.155.145.228.29.454.49.637.645.586 1.452.451 2.256.422-.832.987-1.76 1.888-2.698 2.772-.052-.432-.088-.889-.203-1.309-.152-.56-.499-1.142-1.023-1.423-.54-.288-1.156-.218-1.714-.029-1.435.485-2.965 1.888-3.577 3.266-.31.699-.447 1.534-.145 2.26.28.677.737.938 1.38 1.224-1.193.604-2.356 1.236-3.595 1.749.19-.366.347-.726.37-1.143.025-.493-.101-.98-.462-1.331-.558-.545-1.5-.657-2.242-.65-1.574.017-3.178.685-4.256 1.842-.497.534-.947 1.248-.88 2.008.064.754.476 1.172 1.042 1.62-.777.28-1.696.588-2.513.7.17-.567.385-1.198.291-1.795-.078-.503-.411-.816-.81-1.1-1.165-.826-2.736-.847-4.092-.596-1.27.234-2.41.783-3.162 1.866-2.57-1.76-5.805-2.155-8.852-2.08-3.43-5.01-7.52-7.702-12.957-10.178.447-.4.878-.82 1.314-1.23 2.547.65 5.123 1.29 7.57 2.261 1.113.284 2.204.72 3.303 1.06 4.357 1.347 8.693 2.476 13.3 2.01 5.998-.607 12.091-2.992 15.961-7.78 2.13-2.636 3.362-5.773 3.015-9.18-1.301-5.186-4.427-4.153-5.477-7.156"/><path fill="#BC2D53" d="M137.041 119.563c2.547.65 5.123 1.29 7.57 2.261l-.027.197c4.025 4.448 9.75 7.47 15.773 7.783 4.112.213 7.102-.714 10.833-2.22 1.178-.476 2.407-.948 3.495-1.609 1.325-.803 2.917-2.226 4.251-2.793 1.057-.45 3.132-.2 3.897-.798.093-.073.183-.229.246-.323.145.228.29.454.49.637.645.586 1.452.451 2.256.422-.832.987-1.76 1.888-2.698 2.772-.052-.432-.088-.889-.203-1.309-.152-.56-.499-1.142-1.023-1.423-.54-.288-1.156-.218-1.714-.029-1.435.485-2.965 1.888-3.577 3.266-.31.699-.447 1.534-.145 2.26.28.677.737.938 1.38 1.224-1.193.604-2.356 1.236-3.595 1.749.19-.366.347-.726.37-1.143.025-.493-.101-.98-.462-1.331-.558-.545-1.5-.657-2.242-.65-1.574.017-3.178.685-4.256 1.842-.497.534-.947 1.248-.88 2.008.064.754.476 1.172 1.042 1.62-.777.28-1.696.588-2.513.7.17-.567.385-1.198.291-1.795-.078-.503-.411-.816-.81-1.1-1.165-.826-2.736-.847-4.092-.596-1.27.234-2.41.783-3.162 1.866-2.57-1.76-5.805-2.155-8.852-2.08-3.43-5.01-7.52-7.702-12.957-10.178.447-.4.878-.82 1.314-1.23"/><path fill="#BC2D53" d="M174.713 100.778c.141-.082.197-.166.366-.123 1.502.388 3.99 2.407 4.752 3.851.433.82.849 2.126.562 3.034-.045.141-.128.268-.203.394-1.301-5.186-4.427-4.153-5.477-7.156"/><path fill="#FD7186" d="M184.338 105.33c.25.201.482.41.71.638-.729 1.31-.69 3.342-.298 4.762.074.267.167.525.268.783a1.6 1.6 0 0 1-.444-.124c-.434-.212-.746-.792-.874-1.233-.463-1.59-.183-3.416.638-4.827"/><path fill="#FEBDBB" d="M179.816 99.013c.934-.061 1.835.507 2.52 1.098.4.345.936.927.919 1.5-.01.312-.203.475-.409.68-.558.112-.878.032-1.36-.27-.702-.442-1.966-1.503-2.032-2.366-.022-.29.189-.443.362-.642"/><path fill="#FEBDBB" d="M174.972 121.372c.152.007.302.016.448.064a.77.77 0 0 1 .399.353c.01.232-.007.393-.13.597-.669 1.112-2.189 1.74-3.4 2.025-.296-.015-.446-.065-.712-.2-.061-.109-.125-.152-.087-.284.245-.867 2.67-2.097 3.482-2.555"/><path fill="#FEBDBB" d="M177.883 119.42c.087 0 .205-.004.288.017.259.065.325.155.471.356.002.1.01.186-.024.285-.175.503-.69.753-1.138.95-.152-.03-.398-.086-.523-.177-.225-.163-.213-.245-.224-.497.268-.527.62-.7 1.15-.935"/><path fill="#F6F4EF" d="M71.741 175.064c.096-1.334-.235-3.889.67-4.918.32-.364.66-.472 1.131-.503 3.01-.195 6.68 0 9.758.01l17.617.003 13.774-.01c2.062-.004 4.258-.186 6.305-.016.322.026.678.196.914.417.996.933.641 3.582.665 4.881.07.734.218 1.648-.277 2.272-.295.371-.65.457-1.1.489-2.552.182-5.191.044-7.752.044H98.758l-16.483-.001c-2.903 0-5.877.13-8.772-.034-.479-.028-.912-.063-1.282-.407-.436-.407-.515-.993-.513-1.561 0-.222.003-.445.033-.666"/><path fill="#9CB8C8" d="M71.741 175.064c.196.253.399.542.654.737.39.298.86.334 1.335.347 3.112.083 6.262-.042 9.379-.037l23.639-.005 9.704.003c1.542.003 3.406.201 4.912-.088.603-.115.896-.62 1.21-1.093.072.734.22 1.648-.276 2.272-.295.371-.65.457-1.1.489-2.552.182-5.191.044-7.752.044H98.758l-16.483-.001c-2.903 0-5.877.13-8.772-.034-.479-.028-.912-.063-1.282-.407-.436-.407-.515-.993-.513-1.561 0-.222.003-.445.033-.666"/><path fill="#F64B64" d="M13.374 103.17a16.6 16.6 0 0 1 1.813-2.452c1.733-1.933 4.261-3.73 6.951-3.826 1.016-.036 2.113.32 2.855 1.03.608.581.796 1.187.818 2.005-.431 2.454-2.813 3.134-4.346 4.79-.858.926-1.335 1.908-1.752 3.085-.519 3.03.599 6.067 2.347 8.53 3.004 4.234 8.044 6.84 13.09 7.682 4.059.676 8.254.04 12.169-1.121 1.472-.437 2.926-.98 4.412-1.358 2.094-.919 4.62-1.379 6.838-1.924l1.403 1.098c-5.258 2.13-10.008 5.186-12.865 10.264-2.083-.032-3.791.14-5.749.907-1.347-1.05-2.983-1.565-4.694-1.341-.875.114-2.017.433-2.546 1.185-.299.425-.36.951-.259 1.453.074.364.283.697.464 1.016-.776-.196-1.552-.407-2.335-.57.549-.59.982-1.16.952-2.015s-.598-1.569-1.22-2.106c-.365-.313-.794-.568-1.2-.822-.699-.203-1.329-.446-2.055-.555-.465-.005-.953-.028-1.414.037-.639.09-1.313.37-1.688.918-.488.715-.355 1.527-.215 2.322l-2.753-1.426c.285-.132.582-.265.84-.443.416-.286.668-.811.727-1.304.159-1.335-.678-2.614-1.47-3.609a7.9 7.9 0 0 0-2.155-1.438c-.721-1.043-2.328-1.688-2.713-3l-.046-.245c-.375-1.907-1.006-3.321-2.684-4.448-.36-.88-1.169-1.6-1.374-2.554l.214-.097c.643-.392 1.145-1.059 1.49-1.72.869-1.665.968-3.538.411-5.31-.401-.494-.83-.725-1.4-.978-.769-.095-1.254.009-1.969.26.35-.652.724-1.287 1.108-1.92"/><path fill="#BC2D53" d="m58.569 119.611 1.403 1.098c-5.258 2.13-10.008 5.186-12.865 10.264-2.083-.032-3.791.14-5.749.907-1.347-1.05-2.983-1.565-4.694-1.341-.875.114-2.017.433-2.546 1.185-.299.425-.36.951-.259 1.453.074.364.283.697.464 1.016-.776-.196-1.552-.407-2.335-.57.549-.59.982-1.16.952-2.015s-.598-1.569-1.22-2.106c-.365-.313-.794-.568-1.2-.822.91-.14 2.147.212 3.087.302 3.894.37 7.846.093 11.316-1.844q.876-.485 1.669-1.095c.406-.312 4.987-4.141 5.071-4.267.047-.07.045-.16.068-.241 2.094-.919 4.62-1.379 6.838-1.924"/><path fill="#FD7186" d="M15.635 105.807c.079-.419.117-1.122.502-1.396.103-.073.216-.14.344-.109.405.097.786.714.945 1.067.659 1.463-.025 4.619-.65 6.047-.32.734-.934 1.974-1.724 2.256-.264.095-.66.05-.887-.132-.197-.158-.32-.48-.43-.702.642-.392 1.144-1.059 1.489-1.72.869-1.665.968-3.538.411-5.31"/><path fill="#BC2D53" d="M22.491 124.62c1.017.26 1.952 1.475 2.889 2.011.639.366 2.735 1.077 3.085 1.494-.465-.005-.953-.028-1.414.037-.639.09-1.313.37-1.688.918-.488.715-.355 1.527-.215 2.322l-2.753-1.426c.285-.132.582-.265.84-.443.416-.286.668-.811.727-1.304.159-1.335-.678-2.614-1.47-3.609"/><path fill="#BC2D53" d="M25.81 99.927c-.43 2.454-2.812 3.134-4.345 4.79-.858.926-1.335 1.908-1.752 3.085-.019-.03-.042-.06-.057-.092-.333-.696.003-2.072.292-2.763.832-1.989 2.699-2.788 4.363-3.927.502-.343.936-.86 1.5-1.093"/><path fill="#BC2D53" d="M12.266 105.09c.35-.652.724-1.287 1.108-1.92.575.53.74.894.861 1.66-.769-.095-1.254.009-1.969.26"/><path fill="#FEBDBB" d="M19.982 98.252c.28.044.632.078.85.279a.51.51 0 0 1 .15.54c-.232.897-2.133 2.048-2.945 2.404-.388.01-.64-.06-.956-.276-.104-.236-.138-.34-.044-.59.383-1.023 1.965-1.985 2.945-2.357"/><path fill="#FD7186" d="M24.558 121.136c1.146.286 2.898 1.272 3.707 2.164.263.29.33.442.316.833-.225.04-.459.083-.689.068-.937-.056-2.104-.807-2.721-1.506-.42-.475-.664-.919-.613-1.559"/><path fill="#F64B64" d="M170.604 139.65c.384-.933.907-1.565 1.855-1.966 1.879-.795 4.433-.237 6.233.533 2.652 1.133 4.387 3.576 5.42 6.196q.059.15.11.302c-1.11.673-1.736 1.565-2.055 2.838-.351 1.403-.285 3.185.474 4.439.15.246.334.443.542.64-.442.37-1.151.592-1.477 1.043-1.332.897-2.373 2.017-2.987 3.517-.24.816-.484 1.786-.059 2.586.27.506.707.827 1.254.978q.162.043.326.078c-.575.48-1.166.95-1.707 1.467-.405-.804-.774-1.474-1.68-1.8-.893-.32-1.864-.1-2.737.18l-1.033.491c-.222.17-.432.345-.637.534-.685.633-1.424 1.54-1.432 2.514-.005.695.33 1.103.796 1.58l-2.192.64c-.037-.828-.25-1.523-.86-2.12-1.255-1.232-3.423-1.144-5.057-1.119-.111-1.869-.556-3.754-.774-5.618 1.824.362 3.571.324 5.415.222 1.845-.393 3.582-1.069 5.095-2.217 2.237-1.699 3.507-3.66 3.895-6.433-.339-2.656-1.541-4.133-3.837-5.448-.707-.405-1.482-.783-2.048-1.382-.748-.793-.87-1.635-.843-2.675"/><path fill="#BC2D53" d="M162.927 157.583c1.824.362 3.571.324 5.415.222-.667.882-.793 1.435-.753 2.524.418.704 1.02 1.508 1.865 1.7 1.274.29 2.641-1.134 3.63-.857-.223.17-.433.345-.638.534-.685.633-1.424 1.54-1.432 2.514-.005.695.33 1.103.796 1.58l-2.192.64c-.037-.828-.25-1.523-.86-2.12-1.255-1.232-3.423-1.144-5.057-1.119-.111-1.869-.556-3.754-.774-5.618"/><path fill="#BC2D53" d="M170.604 139.65c2.31 3.744 8.546 1.844 7.079 9.047-.033.16-.084.287-.145.438l-.206.02c-.339-2.656-1.541-4.133-3.837-5.448-.707-.405-1.482-.783-2.048-1.382-.748-.793-.87-1.635-.843-2.675"/><path fill="#BC2D53" d="m174.116 160.682-.033-.157c.375-.57 2.16-.944 2.823-1.448.588-.447 1.317-1.65 1.813-1.885-.24.816-.484 1.786-.059 2.586.27.506.707.827 1.254.978q.162.043.326.078c-.575.48-1.166.95-1.707 1.467-.405-.804-.774-1.474-1.68-1.8-.893-.32-1.864-.1-2.737.18"/><path fill="#FEBDBB" d="M178.93 140.596c.538.02 1.019.289 1.41.647.255.234.523.627.494.992-.027.335-.229.472-.444.694-.51.08-.946-.01-1.36-.333a1.42 1.42 0 0 1-.537-.974c-.042-.455.159-.7.438-1.026"/><path fill="#FEBDBB" d="M175.12 138.987c.255-.026.512-.053.768-.032.424.035.802.106 1.078.452.037.318-.018.343-.183.605a2.7 2.7 0 0 1-.818.064c-.392-.036-.629-.105-.887-.424-.086-.287-.049-.394.042-.665"/><path fill="#F64B64" d="m15.604 150.517.066-.062c1.04-1.018 1.554-2.692 1.549-4.127-.003-.62-.092-1.362-.582-1.803-.284-.256-.577-.305-.948-.298l-.09.003-.067-.135c.36-1.244 1.58-2.64 2.418-3.61 1.713-1.988 3.91-3.13 6.541-3.31 1.138-.079 2.583-.006 3.462.8.612.562.769 1.226.822 2.024-.118.527-.218.991-.545 1.437-.766 1.044-2.052 1.643-3.096 2.363-2.936 2.023-3.449 4.756-2.252 7.981 1.197 2.453 2.932 4.05 5.487 5.001 1.745.462 3.364.838 5.185.572-.273 1.698-.593 3.397-.82 5.1-1.363-.299-3.238-.317-4.436.49-.407.275-.811.754-.912 1.247-.064.313.002.692.046 1.007l-1.781-.564c.604-.41 1.038-.755 1.162-1.515.133-.813-.224-1.657-.702-2.298-.858-1.15-2.624-1.992-4.045-2.186-.52-.072-1.092-.016-1.52.315-.452.35-.628 1.225-1.062 1.426-.306-.11-.882-.694-1.052-.975-.02-.033-.028-.071-.042-.107.218-.034.426-.048.647-.053.67-.51.873-.91 1.082-1.714.006-.118.01-.23.001-.349-.127-1.813-1.169-3.05-2.475-4.18-.417-.217-.895-.467-1.373-.487-.7-.03-1.147.338-1.647.77l-.46-2.126c.531-.167.963-.34 1.44-.637"/><path fill="#BC2D53" d="M28.369 156.781c1.745.462 3.364.838 5.185.572-.273 1.698-.593 3.397-.82 5.1-1.363-.299-3.238-.317-4.436.49-.407.275-.811.754-.912 1.247-.064.313.002.692.046 1.007l-1.781-.564c.604-.41 1.038-.755 1.162-1.515.133-.813-.224-1.657-.702-2.298-.858-1.15-2.624-1.992-4.045-2.186-.52-.072-1.092-.016-1.52.315-.452.35-.628 1.225-1.062 1.426-.306-.11-.882-.694-1.052-.975-.02-.033-.028-.071-.042-.107.218-.034.426-.048.647-.053.67-.51.873-.91 1.082-1.714 1.479.865 3.136.85 4.656 1.586.88.426 1.576 1.456 2.47 1.757.424.143.861-.097 1.229-.299.394-.216.71-.516.814-.968.255-1.116-.464-1.75-.983-2.58z"/><path fill="#BC2D53" d="M28.775 140c-.118.526-.218.99-.545 1.436-.766 1.044-2.052 1.643-3.096 2.363-2.936 2.023-3.449 4.756-2.252 7.981-.302-.081-.426-.213-.589-.48-.765-1.266-.88-3.002-.527-4.417.9-3.603 4.075-5.15 7.01-6.884"/><path fill="#BC2D53" d="M15.604 150.517c.505 1.087 1.852 1.839 2.041 2.48-.417-.217-.895-.467-1.373-.487-.7-.03-1.147.338-1.647.77l-.46-2.126c.531-.167.963-.34 1.44-.637"/><path fill="#FEBDBB" d="M21.239 140.004c.156.036.296.098.444.158.14.2.163.238.102.496-.119.504-.906 1.106-1.325 1.354-.148-.027-.328-.067-.452-.157-.207-.152-.177-.277-.17-.501.322-.613.85-.961 1.401-1.35"/><path fill="#FEBDBB" d="M23.513 138.19c.294-.037.654-.094.922.059.14.08.108.144.134.29-.154.346-.433.478-.744.673-.121.02-.258.052-.383.05-.247-.004-.36-.062-.535-.226l-.005-.246c.142-.31.336-.421.611-.6"/><path fill="#F6F4EF" d="m167.565 137.622.213-.053.092.103c-.508 1.392-.73 2.907-.367 4.36.569 2.282 2.45 3.295 4.276 4.444.882.554 1.71 1.373 1.924 2.43.19.942-.16 1.833-.689 2.6-1.286 1.861-3.653 3.055-5.83 3.45l-.078.007-.13.013c-1.152.122-3.147.18-4.129-.501-.21-.357-.301-.756-.383-1.159-.421-2.068-.612-4.236-.9-6.33-.374-2.703-.824-5.393-1.243-8.09 2.459-.21 4.841-.74 7.244-1.274"/><path fill="#F6F4EF" d="M151.542 80.426c.629-2.042 3.924-4.438 5.743-5.412 3.173-1.697 6.987-1.772 10.387-.732 1.966.602 3.663 1.627 5.39 2.713-1.966 2.213-4.529 4.32-7.242 5.574q-.316.208-.655.376c-3.763 1.853-7.624 1.752-11.515.437l2.129-.918c2.36-1.221 4.354-2.727 6.527-4.23-1.922-.162-5.807 1.274-7.705 1.93-.751.259-1.618.658-2.406.753-.286.034-.347-.009-.556-.197z"/><path fill="#9CB8C8" d="M151.542 80.426c.881-.056 1.983-.97 2.795-1.358 3.208-1.539 6.687-1.8 10.179-1.478q-1.1.342-2.21.644c-1.922-.162-5.807 1.274-7.705 1.93-.751.259-1.618.658-2.406.753-.286.034-.347-.009-.556-.197z"/><path fill="#9CB8C8" d="m153.65 83.382 2.129-.918c2.143.876 4.983.778 7.233.461.902-.126 1.902-.38 2.808-.356q-.316.208-.655.376c-3.763 1.853-7.624 1.752-11.515.437"/><path fill="#F6F4EF" d="M139.465 173.4c-.065-.874-.397-2.707.265-3.365.314-.312 1.14-.363 1.577-.395 2.425-.181 4.974-.027 7.412-.025 1.654 0 3.519-.18 5.148.042.485.065 1.192.156 1.509.565.91 1.175.667 3.252 1.017 4.666.06.485.121 1.11.027 1.588-.077.389-.345.882-.719 1.06-.712.342-12.73.295-14.224.173-.555-.045-1.101-.139-1.611-.367-.72-.958-.414-2.784-.401-3.942"/><path fill="#9CB8C8" d="m139.465 173.4.017.098c.168 1.001-.073 1.767.795 2.473 1.248.164 2.525.115 3.781.115l5.45-.007c1.663-.001 3.66.18 5.294-.03.302-.04.565-.15.808-.335.295-.224.542-.545.783-.826.06.485.121 1.11.027 1.588-.077.389-.345.882-.719 1.06-.712.342-12.73.295-14.224.173-.555-.045-1.101-.139-1.611-.367-.72-.958-.414-2.784-.401-3.942"/><path fill="#F6F4EF" d="M43.518 159.061c.278-.03.544-.052.824-.046.516.466.783 1.216 1.216 1.767 1.692 2.155 4.164 3.587 6.96 3.436a6.6 6.6 0 0 0 4.654-2.25c.38-.428 1.635-2.673 1.812-2.744.081-.032.296-.047.39-.053.176-.01.355-.005.531-.004.823-.013 1.82-.08 2.448.564.648.666.5 1.77.454 2.615l-.034.588c.014 1.33.354 3.442-.521 4.508-.876.357-19.357.347-20.163.054-.284-.103-.49-.39-.589-.667-.204-.574-.104-1.317.006-1.908.15-1.407.149-3.111.629-4.439.283-.782.643-1.08 1.383-1.42"/><path fill="#9CB8C8" d="M62.67 165.283c.003-.77-.05-1.593.103-2.349.014 1.33.354 3.442-.521 4.508-.876.357-19.357.347-20.163.054-.284-.103-.49-.39-.589-.667-.204-.574-.104-1.317.006-1.908.168.318.347.693.622.935.26.228.504.274.835.306 1.095.107 2.234.047 3.334.042l5.226-.004c3.3.007 6.947.246 10.2-.01.38-.273.658-.54.948-.907"/><path fill="#9CB8C8" d="M43.518 159.061c.278-.03.544-.052.824-.046.516.466.783 1.216 1.216 1.767 1.692 2.155 4.164 3.587 6.96 3.436a6.6 6.6 0 0 0 4.654-2.25c.38-.428 1.635-2.673 1.812-2.744.081-.032.296-.047.39-.053.176-.01.355-.005.531-.004-.239 1.49-.877 2.956-1.89 4.085a7.68 7.68 0 0 1-5.292 2.558c-2.393.126-4.87-.85-6.626-2.462-1.148-1.054-2.518-2.655-2.58-4.287"/><path fill="#F6F4EF" d="M55.533 175.059c.036-1.227-.205-4.03.768-4.88.383-.336 1.105-.457 1.592-.51 1.011-.11 2.088-.044 3.108-.046l5.75-.003c.77.003 1.585-.038 2.155.574.743.796.258 3.371.232 4.439.013.792.195 2.144-.377 2.76-.241.258-.98.285-1.333.313-1.382.11-2.818.034-4.208.037-1.907.003-3.836.062-5.74-.011-.454-.018-1.239-.016-1.56-.356-.508-.54-.458-1.547-.397-2.236z"/><path fill="#9CB8C8" d="M69.138 174.633c.013.792.195 2.144-.377 2.76-.241.258-.98.285-1.333.313-1.382.11-2.818.034-4.208.037-1.907.003-3.836.062-5.74-.011-.454-.018-1.239-.016-1.56-.356-.508-.54-.458-1.547-.397-2.236l.01-.081c.287.36.57.729 1.02.884.898.31 11.063.274 11.772-.085.449-.227.681-.771.813-1.225"/><path fill="#F6F4EF" d="M31.182 136.859c1.733.317 3.462.764 5.183 1.146-.526 4.704-1.368 9.386-2.007 14.079-.056.409-.2 2.178-.517 2.374-.786.487-2.581.06-3.438-.146l-.14-.044c-1.775-.58-3.449-1.699-4.286-3.422-1.718-3.537 2.17-4.695 4.158-6.563a6.04 6.04 0 0 0 1.62-2.518c.58-1.742.21-3.322-.573-4.906"/><path fill="#F6F4EF" d="M39.79 174.753c.193-1.23.16-3.487.941-4.459.33-.41 1.004-.517 1.5-.588 1.257-.183 7.824-.212 9.046-.031.454.067 1.092.202 1.445.518.605.543.238 3.51.243 4.376.064.921.218 2-.461 2.742-.653.713-7.75.438-9.284.436-.666-.001-2.713.122-3.193-.369-.382-.391-.42-1.084-.366-1.592q.057-.518.13-1.033"/><path fill="#9CB8C8" d="M52.965 174.57c.064.92.218 1.999-.461 2.741-.653.713-7.75.438-9.284.436-.666-.001-2.713.122-3.193-.369-.382-.391-.42-1.084-.366-1.592q.057-.518.13-1.033c.028.247.132.466.282.663.289.378.584.54 1.058.59 1.857.2 3.847.072 5.719.075 1.532.002 3.221.14 4.733-.056.33-.043.588-.108.843-.335.343-.303.5-.674.54-1.12"/><path fill="#F6F4EF" d="M150.536 85.847c.582.156 1.22.308 1.736.625 2.6 1.06 4.385 3.156 5.474 5.708a13.9 13.9 0 0 1 .037 10.748 10 10 0 0 1-.313.707c-1.126-.677-2.426-1.56-3.301-2.557a2.4 2.4 0 0 1-.281-.199c-3.847-3.146-4.704-8.595-5.199-13.232.56 1.176 1.315 2.233 1.931 3.377.796 1.056 1.975 2.915 2.972 3.71.12-.11.084-.042.107-.204-.228-.698-.228-1.498-.402-2.22-.57-2.357-1.495-4.408-2.761-6.463"/><path fill="#9CB8C8" d="M148.69 87.647c.558 1.176 1.314 2.233 1.93 3.377-.121 1.401 1.613 6.283 2.278 7.69.368.78 1.019 1.55 1.27 2.364a2.4 2.4 0 0 1-.28-.199c-3.847-3.146-4.704-8.595-5.199-13.232"/><path fill="#9CB8C8" d="M150.536 85.847c.582.156 1.22.308 1.736.625.137.817.872 1.79 1.207 2.576.83 1.946 1.273 4.744 1.353 6.852-.181-.288-.824-1.48-1.093-1.565l-.04.195c-.228-.698-.228-1.498-.402-2.22-.57-2.357-1.495-4.408-2.761-6.463"/><path fill="#F6F4EF" d="M125.105 174.633c.008-.99-.357-3.821.203-4.526.234-.294.834-.399 1.184-.465 1.285-.245 6.788-.197 8.135-.057.408.042 1.166.131 1.476.4.856.742.684 3.32.745 4.434.07.894.302 2.15-.332 2.899-.305.361-1.174.384-1.639.404-1.245.052-8.653.196-9.294-.292-.62-.471-.53-1.584-.503-2.263z"/><path fill="#9CB8C8" d="M136.848 174.42c.07.893.302 2.148-.332 2.898-.305.361-1.174.384-1.639.404-1.245.052-8.653.196-9.294-.292-.62-.471-.53-1.584-.503-2.263l.025-.534c.037.163.08.293.16.441.217.4.506.781.97.897.952.237 9.513.222 10.013-.167.435-.338.528-.87.6-1.385"/><path fill="#F6F4EF" d="M104.909 164.982c-.108-1.323-.294-4.329.561-5.369.394-.48 1.325-.653 1.904-.715 1.332-.144 4.74-.208 6.024-.016.513.077 1.111.25 1.506.604.858.771.626 4.23.65 5.447.068.756.157 1.692-.382 2.307-.372.424-1.017.385-1.544.404-1.184.044-7.674.242-8.282-.324-.395-.367-.445-.89-.446-1.4 0-.311.02-.626.009-.938"/><path fill="#9CB8C8" d="M105.906 166.289c1.5.135 7.314.228 8.577-.137.58-.168.812-.729 1.072-1.219.067.756.156 1.692-.383 2.307-.372.424-1.017.385-1.544.404-1.184.044-7.674.242-8.282-.324-.395-.367-.445-.89-.446-1.4 0-.311.02-.626.009-.938l.015.095c.12.651.467.851.982 1.212"/><path fill="#F6F4EF" d="M118.13 164.722c.053-1.09-.29-4.443.257-5.197.273-.377.855-.549 1.289-.639 1.138-.235 5.815-.217 7.009-.038.447.068 1.085.206 1.437.512.568.496.41 1.932.408 2.624.107 1.082.389 4.386-.27 5.198-.423.24-.876.355-1.355.42-1.104.15-7.09.207-8.037-.065-.277-.079-.456-.276-.587-.528-.342-.663-.202-1.566-.151-2.287"/><path fill="#9CB8C8" d="M128.53 161.984c.107 1.082.389 4.386-.27 5.198-.423.24-.876.355-1.355.42-1.104.15-7.09.207-8.037-.065-.277-.079-.456-.276-.587-.528-.342-.663-.202-1.566-.151-2.287.04.46.275 1.028.654 1.313.735.552 6.954.347 8.127.207.822-.098 1.108-.441 1.593-1.06-.005-1.065-.028-2.134.026-3.198"/><path fill="#F6F4EF" d="M85.434 151.428c0-.94-.095-2.119.678-2.818.864-.781 6.389-.691 7.742-.53.518.063 1.414.257 1.739.716.64.905.28 4.45.32 5.698 0 .486.044 1.043-.144 1.5-.123.298-.34.605-.66.71-.858.284-6.992.262-8.098.134-.477-.055-.902-.146-1.332-.37-.583-.832-.35-3.983-.245-5.04"/><path fill="#9CB8C8" d="M95.912 154.494c0 .486.045 1.043-.143 1.5-.123.298-.34.605-.66.71-.858.284-6.992.262-8.098.134-.477-.055-.902-.146-1.332-.37-.583-.832-.35-3.983-.245-5.04.05.994.036 1.99.033 2.984.293.399.578.738.949 1.072 1.684.304 6.544.174 8.401.053.44-.3.751-.646 1.095-1.043"/><path fill="#F6F4EF" d="M72.444 153.48c.003-1.433-.348-3.808.741-4.89.868-.863 3.712-.56 4.896-.56 1.144.002 3.618-.222 4.423.7.74.848.418 3.172.384 4.243.014 1.123.231 2.637-.48 3.579-1.096.473-8.39.493-9.509.1-.428-.422-.556-.875-.56-1.475-.003-.565.055-1.135.105-1.697"/><path fill="#9CB8C8" d="M82.785 154.42c.004-.493.016-.96.103-1.447.014 1.123.231 2.637-.48 3.579-1.096.473-8.39.493-9.509.1-.428-.422-.556-.875-.56-1.475-.003-.565.055-1.135.105-1.697.021.656.116 1.22.617 1.686.13.122.302.267.475.32.903.272 7.028.141 8.223.065.455-.32.721-.673 1.026-1.131"/><path fill="#F6F4EF" d="M98.52 152.01c.01-.99-.147-2.595.608-3.341.957-.946 5.853-.703 7.277-.623.684.038 1.714.234 2.166.813.724.928.378 4.17.423 5.429.043.636.147 1.418-.206 1.985-.162.259-.339.353-.635.423-1.214.288-6.696.284-8.063.126-.45-.052-.896-.135-1.29-.368-.636-.975-.437-3.296-.28-4.444"/><path fill="#9CB8C8" d="M108.994 154.288c.043.636.147 1.418-.206 1.985-.162.259-.339.353-.635.423-1.214.288-6.696.284-8.063.126-.45-.052-.896-.135-1.29-.368-.636-.975-.437-3.296-.28-4.444.028.78-.187 2.499.395 3.058.308.296.982.406 1.386.455 1.34.161 6.193.197 7.46-.018.586-.1.83-.611 1.13-1.062z"/><path fill="#F6F4EF" d="M59.556 150.07c.097-.625.324-1.206.855-1.589.908-.652 6.956-.544 8.186-.312.412.078.821.345 1.048.7.523.813.284 2.557.26 3.52.043 1.001.271 3.25-.367 4.034-.418.234-.839.343-1.313.403-1.156.145-2.404.062-3.57.067-1.22.004-2.511.09-3.727-.028-.434-.042-1.008-.108-1.3-.466-.33-.92-.268-5.23-.072-6.33"/><path fill="#9CB8C8" d="M59.556 150.07c.02 1.31-.33 4.078.392 5.12.393.265.817.382 1.286.44 1.072.132 6.299.13 7.302-.066.54-.105.944-.685 1.25-1.097.026-.673-.005-1.42.12-2.078.042 1.001.27 3.25-.368 4.034-.418.234-.839.343-1.313.403-1.156.145-2.404.062-3.57.067-1.22.004-2.511.09-3.727-.028-.434-.042-1.008-.108-1.3-.466-.33-.92-.268-5.23-.072-6.33"/><path fill="#F6F4EF" d="M65.324 165.1c.093-1.283-.177-4.342.634-5.282.514-.597 1.612-.785 2.355-.827 1.418-.079 6.364-.323 7.303.618.762.764.377 4.107.359 5.262.01.743.149 1.829-.403 2.427-.42.457-1.784.359-2.396.361-1.137.006-7.164.189-7.62-.336-.479-.553-.309-1.556-.232-2.223"/><path fill="#9CB8C8" d="M75.975 164.87c.01.744.149 1.83-.403 2.428-.42.457-1.784.359-2.396.361-1.137.006-7.164.189-7.62-.336-.479-.553-.309-1.556-.232-2.223.248.37.54.927.961 1.104.715.3 8.157.316 8.764-.022.473-.264.781-.81.926-1.311"/><path fill="#F6F4EF" d="M111.595 154.337c.047-1.275-.347-4.665.405-5.585.394-.484.907-.627 1.503-.68 1.35-.118 6.903-.32 7.809.516.57.524.578 1.262.578 1.976.059.987.347 5.062-.14 5.718-.269.362-1.064.508-1.477.556-.873.102-1.81.028-2.689.027-1.405 0-2.825.046-4.228-.012-.458-.019-.934-.055-1.36-.232-.45-.502-.49-.999-.457-1.655.011-.212.027-.42.056-.63"/><path fill="#9CB8C8" d="M121.89 150.564c.059.987.347 5.062-.14 5.718-.269.362-1.064.508-1.477.556-.873.102-1.81.028-2.689.027-1.405 0-2.825.046-4.228-.012-.458-.019-.934-.055-1.36-.232-.45-.502-.49-.999-.457-1.655.011-.212.027-.42.056-.63.205.36.425.805.791 1.023.613.363 7.659.333 8.497.105.49-.134.751-.681.985-1.085-.011-1.268-.058-2.549.022-3.815"/><path fill="#F6F4EF" d="M78.598 163.338c-.004-.922-.166-2.492.283-3.322.258-.477.925-.738 1.417-.873 1.155-.318 5.429-.294 6.704-.133.456.058.938.189 1.335.425.463.275.627.66.747 1.164.143.92.22 6.099-.232 6.59-.648.705-7.872.572-9.078.373-.345-.057-.692-.124-.96-.361-.49-.954-.38-2.79-.216-3.863"/><path fill="#9CB8C8" d="M89.084 160.599c.143.92.22 6.099-.232 6.59-.648.705-7.872.572-9.078.373-.345-.057-.692-.124-.96-.361-.49-.954-.38-2.79-.216-3.863.063.665.028 1.363.03 2.033.315.358.592.642.993.909 2.607.221 5.752.172 8.366.01.482-.312.743-.67 1.054-1.137 0-1.517-.017-3.038.043-4.554"/><path fill="#F6F4EF" d="M124.612 154.168c-.02-1.034-.336-5 .33-5.649.304-.296.913-.41 1.318-.46 1.15-.141 5.275-.145 6.455.008.531.07 1.386.259 1.734.71.749.97.392 4.341.454 5.653.01.204.018.408.014.612-.01.547-.105.988-.528 1.364-.294.262-.664.384-1.048.44-1.364.195-2.954-.032-4.344-.034-.963-.002-1.967.116-2.924.02-.444-.043-.924-.142-1.211-.516-.451-.588-.32-1.461-.25-2.148"/><path fill="#9CB8C8" d="M124.612 154.168c.22.43.464 1.068.96 1.233 1.053.35 7.31.286 8.469-.023a9 9 0 0 0 .862-.948c.01.204.018.408.014.612-.01.547-.105.988-.528 1.364-.294.262-.664.384-1.048.44-1.364.195-2.954-.032-4.344-.034-.963-.002-1.967.116-2.924.02-.444-.043-.924-.142-1.211-.516-.451-.588-.32-1.461-.25-2.148"/><path fill="#F6F4EF" d="M91.867 165.118c.023-1.445-.186-3.162.114-4.564.106-.495.361-.91.797-1.18.336-.209.726-.312 1.115-.366 1.15-.158 6.411-.106 7.483.125.168.135.342.271.494.425.812.82.484 4.044.469 5.215.014.773.19 2.038-.419 2.622-.444.426-7.603.323-8.629.216-.435-.046-.903-.075-1.176-.454-.365-.505-.299-1.443-.248-2.04"/><path fill="#9CB8C8" d="M92.943 166.282c1.473.133 7.35.29 8.456-.252.464-.227.794-.781.94-1.257.014.773.19 2.038-.419 2.622-.444.426-7.603.323-8.629.216-.435-.046-.903-.075-1.176-.454-.365-.505-.299-1.443-.248-2.04.336.437.65.81 1.076 1.165"/><path fill="#F6F4EF" d="M91.654 143.955c.045-1.086-.196-5.144.598-5.852.495-.441 1.414-.586 2.052-.609 1.337-.05 6.455-.324 7.335.584.784.808.52 4.286.514 5.477.005.687.083 1.508-.42 2.055-.613.665-6.733.416-7.915.402-.618-.008-1.303.063-1.758-.426-.389-.417-.435-.995-.413-1.542q.003-.045.007-.09"/><path fill="#9CB8C8" d="M92.677 144.71c1.511.066 3.045.021 4.559.024 1.19.002 2.5.114 3.669-.081.642-.108.9-.61 1.248-1.098.005.687.083 1.508-.42 2.055-.613.665-6.733.416-7.915.402-.618-.008-1.303.063-1.758-.426-.389-.417-.435-.995-.413-1.542q.003-.045.007-.09c.315.316.644.53 1.023.757"/><path fill="#F6F4EF" d="M104.674 143.462c0-1.006-.25-4.812.391-5.444.3-.297.947-.432 1.35-.484 1.264-.162 5.127-.155 6.42.005.53.066 1.384.237 1.738.677.743.927.468 4.223.472 5.491.002.306.014.62-.01.924-.04.524-.238.842-.625 1.182-1.2.332-7.062.303-8.45.158-.441-.046-.709-.118-.995-.485-.46-.59-.403-1.328-.291-2.024"/><path fill="#9CB8C8" d="M104.674 143.462c.396.587.67 1.064 1.422 1.192 1.036.175 7.56.225 8.228-.25.264-.19.497-.462.72-.697.003.306.015.62-.009.924-.04.524-.238.842-.625 1.182-1.2.332-7.062.303-8.45.158-.441-.046-.709-.118-.995-.485-.46-.59-.403-1.328-.291-2.024"/><path fill="#F6F4EF" d="M78.694 143.517c.006-1.113-.194-4.64.626-5.406.336-.312.988-.47 1.426-.541 1.239-.2 5.43-.206 6.652-.037.396.055 1.072.19 1.336.528.683.874.208 4.48.243 5.68.007.247.015.496.008.743-.014.456-.152.921-.506 1.23-.557.487-7.546.417-8.657.301-.338-.035-.568-.038-.79-.32-.485-.615-.417-1.448-.338-2.178"/><path fill="#9CB8C8" d="M78.694 143.517c.254.411.51.987 1.027 1.1 1.04.227 7.808.317 8.533-.173.27-.183.503-.464.723-.704.007.248.015.497.008.744-.014.456-.152.921-.506 1.23-.557.487-7.546.417-8.657.301-.338-.035-.568-.038-.79-.32-.485-.615-.417-1.448-.338-2.178"/><path fill="#F6F4EF" d="M117.69 140.421c-.019-.482-.071-1.01-.01-1.488.055-.432.262-.889.62-1.151.847-.622 2.896-.254 3.907-.108 1.59.108 4.186-.007 5.29 1.298.709.837.637 1.964.64 2.99.15.956.37 2.686-.232 3.488-.258.344-.757.406-1.159.467-1.043.16-8.206.32-8.78-.331-.541-.614-.291-4.246-.277-5.165"/><path fill="#9CB8C8" d="M117.69 140.421c.14 1.034.079 2.12.081 3.163.331.493.57.95 1.212 1.061.997.173 7.93.217 8.642-.297.248-.18.449-.487.485-.794.023-.19.01-.39.003-.581-.022-.335.008-.675.024-1.01.15.955.37 2.685-.232 3.487-.258.344-.757.406-1.159.467-1.043.16-8.206.32-8.78-.331-.541-.614-.291-4.246-.277-5.165"/><path fill="#9CB8C8" d="M122.207 137.674c1.59.108 4.186-.007 5.29 1.298.709.837.637 1.964.64 2.99-.016.336-.046.676-.024 1.01-1.114-.765-2.122-1.922-3.131-2.841-.914-.833-1.9-1.583-2.775-2.457"/><path fill="#F6F4EF" d="M71.298 137.892c1.046-.14 3.485-.586 4.35.097.416.329.51.848.541 1.349.088 1.405-.109 2.858-.089 4.27.059.528.014.998-.05 1.52-.24.377-.492.77-.959.872-1.034.228-6.643.207-7.858.104-.343-.03-.987-.08-1.252-.325-.536-.495-.365-1.801-.346-2.447l-.026-.267c.012-1.279-.141-2.87.75-3.905 1.04-1.208 3.47-1.142 4.94-1.268"/><path fill="#9CB8C8" d="M65.635 143.332c.18.473.424.979.905 1.211.633.306 7.945.282 8.56.052.488-.183.72-.577 1-.986.059.527.014.997-.05 1.519-.24.377-.492.77-.959.872-1.034.228-6.643.207-7.858.104-.343-.03-.987-.08-1.252-.325-.536-.495-.365-1.801-.346-2.447"/><path fill="#9CB8C8" d="M65.609 143.065c.012-1.279-.141-2.87.75-3.905 1.04-1.208 3.47-1.142 4.94-1.268-1.45 1.192-4.741 3.692-5.69 5.173"/><path fill="#F6F4EF" d="m149.629 159.153 1.757.02c.952-.006 1.914-.077 2.632.675.92.963.89 4.204.985 5.563.067.57.176 1.26-.2 1.753-.286.375-.723.396-1.166.442-1.474.155-3.036.033-4.523.033-1.267.001-2.656.129-3.904-.037-.289-.039-.505-.108-.73-.303-.292-.254-.386-.548-.419-.92-.048-.871.032-1.743.091-2.612 2.569-1.253 3.944-2.159 5.477-4.614"/><path fill="#9CB8C8" d="M155.003 165.41c.067.57.176 1.26-.2 1.754-.286.375-.723.396-1.166.442-1.474.155-3.036.033-4.523.033-1.267.001-2.656.129-3.904-.037-.289-.039-.505-.108-.73-.303-.292-.254-.386-.548-.419-.92l.128-.043c.037-.248.077-.479.145-.72l.116-.023c.088.118.188.221.298.32.184.164.361.288.606.341.993.217 6.824.084 8-.001.831-.06 1.102-.208 1.649-.842"/><path fill="#9CB8C8" d="m149.629 159.153 1.757.02c-1.045 2.674-3.21 4.624-5.795 5.774-.396.176-.877.286-1.141.646l-.116.023a6 6 0 0 0-.145.72l-.128.043c-.048-.871.032-1.743.091-2.612 2.569-1.253 3.944-2.159 5.477-4.614"/><path fill="#F6F4EF" d="m134.33 158.976 1.07.005c.657 1.844 1.63 3.422 3.472 4.274.855.396 1.758.495 2.676.652.028.328.069.66.063.987.097.716.285 1.69-.218 2.296-.388.469-1.047.447-1.613.462-1.158.029-7.549.193-8.157-.378-.355-.334-.463-.785-.47-1.257-.005-.314.01-.63.066-.94.088-1.66-.147-3.36.048-5.008.127-.2.256-.415.428-.58.696-.667 1.752-.527 2.635-.513"/><path fill="#9CB8C8" d="M141.611 164.894c.097.716.285 1.69-.218 2.296-.388.469-1.047.447-1.613.462-1.158.029-7.549.193-8.157-.378-.355-.334-.463-.785-.47-1.257-.005-.314.01-.63.066-.94.335.49.576.946 1.21 1.072 1.362.271 7.65.35 8.74-.209l.15-.075.14.035.104-.074c.025-.311.038-.62.048-.932"/><path fill="#9CB8C8" d="m134.33 158.976 1.07.005c.657 1.844 1.63 3.422 3.472 4.274.855.396 1.758.495 2.676.652.028.328.069.66.063.987-.01.312-.023.621-.048.932l-.104.074-.14-.035c-.67-.367-1.825-.258-3.035-.973-2.233-1.318-3.33-3.47-3.954-5.916"/><path fill="#FD7186" d="M186.012 109.786c-.106-.623-.145-1.463.022-2.074.108-.395.342-.881.745-1.053a.82.82 0 0 1 .629-.028c.604.213.94.854 1.213 1.386.106.397.23.797.312 1.2.141.843.257 1.703-.246 2.458-.2.301-.518.567-.894.589-.316.018-.616-.149-.829-.372-.33-.345-.556-.802-.724-1.244a4 4 0 0 1-.228-.862"/><path fill="#F64B64" d="M188.933 109.217c.141.843.257 1.703-.246 2.458-.2.301-.518.567-.894.589-.316.018-.616-.149-.829-.372-.33-.345-.556-.802-.724-1.244.205.024.147-.001.302.07.464.213 1.032.4 1.534.161.463-.22.718-1.203.857-1.662"/><path fill="#F64B64" d="M186.012 109.786c-.106-.623-.145-1.463.022-2.074.108-.395.342-.881.745-1.053a.82.82 0 0 1 .629-.028c.604.213.94.854 1.213 1.386-.382-.022-.724-.039-1.103.03-.366.067-.67.006-1.03-.068-.188.075-.205.073-.284.251-.195.437-.2 1.091-.192 1.556"/><path fill="#F64B64" d="M11.738 107.406c.42-.562.916-1.097 1.64-1.226.264-.047.535-.043.761.123.399.294.479.917.497 1.373.047 1.137-.28 2.702-1.09 3.531-.179.184-.412.354-.68.361-.317.009-.57-.222-.757-.45a3.7 3.7 0 0 1-.62-1.088c-.295-.96-.117-1.72.249-2.624"/><path fill="#FD7186" d="M11.738 107.406c.525-.088 1.086-.25 1.566.07.237.16.388.385.437.667.127.717-.288 1.664-.716 2.22-.08.104-.17.185-.268.271-.42-.003-.869-.44-1.267-.604-.296-.96-.118-1.72.248-2.624"/><path fill="#F64B64" d="M187.302 120.15c-.4.764-1.07 1.5-1.925 1.757-.222.067-.488.087-.686-.056-.362-.262-.428-.764-.45-1.176-.07-1.247.41-2.802 1.304-3.703.256-.257.576-.45.953-.411.398.04.587.27.819.56.33 1.002.537 1.9.048 2.906z"/><path fill="#FD7186" d="M187.317 117.12c.33 1.003.537 1.9.048 2.907l-.063.123c-.544.041-.98.354-1.514.158a1.2 1.2 0 0 1-.316-.725c-.076-.65.084-1.866.576-2.349.23-.226.948-.108 1.269-.114"/><path fill="#FD7186" d="M13.179 117.16c.187-.212.332-.395.634-.432.382-.048.71.144.982.393.904.83 1.425 2.398 1.42 3.621-.001.324-.048.701-.274.953-.205.227-.492.246-.775.226-.746-.052-1.194-.397-1.678-.937a4 4 0 0 1-.349-.557c-.585-1.112-.3-2.141.04-3.268"/><path fill="#F64B64" d="M13.179 117.16c.187-.212.332-.395.634-.432.382-.048.71.144.982.393.904.83 1.425 2.398 1.42 3.621-.001.324-.048.701-.274.953-.205.227-.492.246-.775.226-.746-.052-1.194-.397-1.678-.937.428 0 .694-.017 1.04-.285.374-.29.599-.677.65-1.15a2.4 2.4 0 0 0-.587-1.805c-.428-.497-.791-.526-1.412-.585"/><path fill="#F64B64" d="M27.368 129.62c.819-.036 1.48.09 2.247.353.714.275 1.492.644 1.882 1.345.123.221.151.469.06.709-.16.419-.59.777-1.005.924-.735.26-1.595.04-2.271-.289-.726-.354-1.518-.993-1.762-1.793-.089-.29-.087-.619.1-.873.178-.245.474-.304.75-.376"/><path fill="#FD7186" d="M27.368 129.62c.819-.036 1.48.09 2.247.353-.033.369-.056.657.08 1.009.066.167.129.292.115.476-.013.189.007.112-.162.261-.657.036-1.203-.315-1.767-.61-.233-.47-.331-.996-.513-1.49"/><path fill="#F64B64" d="M159.291 134.178c-.124-.249-.263-.407-.15-.698.175-.453.855-.684 1.276-.8 1.068-.298 2.454-.39 3.445.172.266.15.404.313.484.614-.045.554-.413.876-.821 1.214-.412.34-.891.59-1.398.759-.655.225-1.295.26-1.98.27z"/><path fill="#FD7186" d="M159.291 134.178c.785-.411 1.801-.884 2.712-.628.231.065.43.166.525.402a.84.84 0 0 1-.056.747c-.147.27-.286.423-.345.74-.655.225-1.295.26-1.98.27z"/><path fill="#F64B64" d="M179.931 124.705c.402-.177.942-.458 1.379-.227.29.154.405.484.456.787.118.703-.023 1.391-.446 1.969-.521.712-1.457 1.261-2.337 1.35-.35.035-.827-.012-1.1-.261-.201-.184-.288-.36-.29-.635-.002-.383.474-1.161.738-1.444.456-.594 1.002-1.092 1.6-1.539"/><path fill="#FD7186" d="M179.931 124.705c.322.334.553.631.525 1.119-.028.462-.327 1.332-.75 1.596-.238.149-.331.134-.597.11l-.1-.08c.002-.2.07-.538-.065-.685-.136-.148-.283-.237-.446-.35-.12-.083-.075-.046-.167-.171.456-.594 1.002-1.092 1.6-1.539"/><path fill="#F64B64" d="m169.54 130.577.164-.081c1.092-.539 1.968-.945 3.183-.531.234.275.406.451.372.842-.053.599-.494 1.057-.958 1.393-.838.609-2.108 1.098-3.151.884-.302-.062-.6-.212-.756-.49-.152-.272-.146-.604-.042-.891.19-.526.72-.869 1.188-1.126"/><path fill="#FD7186" d="m169.54 130.577.164-.081c1.092-.539 1.968-.945 3.183-.531l-.12.137c-.62.734-.797 1.725-1.931 1.839-.46.046-1.111.014-1.491-.269-.098-.388.15-.7.195-1.095"/><path fill="#F64B64" d="M22.556 127.438c.064.162.126.364.096.543a.76.76 0 0 1-.369.554c-.315.208-.823.217-1.18.143-.868-.182-1.612-.913-2.052-1.65-.33-.555-.68-1.503-.441-2.15.077-.211.208-.405.426-.484.406-.146.742.057 1.106.225 1.115.687 1.888 1.619 2.414 2.82"/><path fill="#FD7186" d="M20.142 124.62c1.115.686 1.888 1.618 2.414 2.818l-.384.143c-.452.172-.748.267-1.213.05a1.85 1.85 0 0 1-.961-1.118c-.237-.73-.179-1.215.144-1.894"/><path fill="#BC2D53" d="M10.535 111.196c.25.451.472.857.883 1.187.616.494 1.325.645 2.102.552.205.953 1.015 1.674 1.374 2.554-.62-.192-1.176-.338-1.822-.143-.902.273-1.338 1.115-1.728 1.895-.563-2.033-.806-3.943-.81-6.045"/><path fill="#FD7186" d="M23.218 163.11c-.383-.207-.785-.43-1.13-.695-.452-.346-1.061-.937-1.077-1.553a.73.73 0 0 1 .279-.596c.298-.233.735-.253 1.094-.204 1.175.161 2.22.988 2.914 1.913.155.296.295.547.178.89-.065.192-.259.356-.443.436-.502.218-1.004.196-1.496-.03a6 6 0 0 1-.319-.162"/><path fill="#F64B64" d="M25.298 161.975c.155.296.295.547.178.89-.065.192-.259.356-.443.436-.502.218-1.004.196-1.496-.03a6 6 0 0 1-.319-.162c.148-.236.293-.446.478-.654.347-.146.561.009.901-.008.313-.015.488-.273.701-.472"/><path fill="#BC2D53" d="M17.624 120.182c.385 1.312 1.992 1.957 2.713 3a5 5 0 0 0-.956-.126c-.512-.006-1.079.185-1.443.552-.722.727-.676 1.747-.663 2.691-1.03-.995-1.966-2.07-2.912-3.143.223.014.445.04.668.058.651.052 1.37-.047 1.875-.5.706-.636.694-1.66.718-2.532"/><path fill="#F64B64" d="M175.392 161.744c.556-.024.979-.082 1.418.32.122.245.158.425.074.69-.277.868-1.31 1.524-2.104 1.891-.53.246-1.221.506-1.806.298a.99.99 0 0 1-.582-.519c-.079-.176-.05-.382.037-.551.156-.305.423-.55.662-.788.683-.66 1.411-1.038 2.3-1.34"/><path fill="#FD7186" d="M173.091 163.085c.683-.66 1.411-1.038 2.3-1.34.106.517.174.865-.142 1.326-.287.418-.76.784-1.272.859-.331.048-.525-.038-.794-.204-.096-.229-.09-.398-.092-.641"/><path fill="#FD7186" d="M181.515 155.648c.324-.321.575-.647 1.067-.632a.53.53 0 0 1 .398.199c.24.272.225.694.244 1.033-.178 1.064-.596 1.871-1.42 2.583a3 3 0 0 1-.394.29c-.373.217-.919.481-1.353.355-.157-.167-.23-.272-.252-.507-.11-1.141.867-2.337 1.593-3.133z"/><path fill="#F64B64" d="M181.805 158.831a3 3 0 0 1-.395.29c-.373.217-.919.481-1.353.355-.157-.167-.23-.272-.252-.507-.11-1.141.867-2.337 1.593-3.133q.012.089.02.178c.056.87-1.108 1.565-.153 2.425.163.147.357.27.54.392"/><path fill="#F64B64" d="M181.515 155.648c.324-.321.575-.647 1.067-.632a.53.53 0 0 1 .398.199c.24.272.225.694.244 1.033q-.02-.011-.038-.024c-.642-.521-.861-.575-1.671-.576"/><path fill="#9CB8C8" d="M144.772 75.655q.064.03.126.06c.98.521 2.947 3.42 3.241 4.512.352 1.304-.05 2.383-.68 3.51l-.188.175c-.02-.017-.044-.032-.063-.052-.254-.282-1.066-4.448-1.038-5.075.001-.031.018-.06.02-.092.08-1.016-.889-2.236-1.418-3.038"/><path fill="#FD7186" d="M37.014 131.796c1.07.02 1.86.175 2.79.744a10 10 0 0 0-2.095 2.215l-1.017-.268a2.8 2.8 0 0 1-.83-.393c-.354-.25-.699-.573-.724-1.034a.93.93 0 0 1 .226-.634c.387-.48 1.083-.55 1.65-.63"/><path fill="#F64B64" d="M36.692 134.487a2.8 2.8 0 0 1-.83-.393c-.354-.25-.699-.573-.724-1.034a.93.93 0 0 1 .226-.634c.387-.48 1.083-.55 1.65-.63.071.746-.14 1.158-.423 1.834-.129.308-.006.565.101.857"/><path fill="#9CB8C8" d="M130.917 141.426c1.39.902 2.934 2.942 3.525 4.492-.865.042-2.433.29-3.105-.36-.632-.61-.393-3.16-.42-4.132"/><path fill="#FD7186" d="M15.472 155.201c-.078-.247-.129-.695-.046-.943.074-.22.23-.329.446-.384.56-.143 1.084.323 1.478.643.464.502.864.997 1.194 1.6.208.473.343.953.17 1.455-.21.222-.353.337-.67.34-.596.003-1.089-.368-1.489-.777-.478-.617-.876-1.164-1.083-1.934"/><path fill="#F64B64" d="M18.544 156.117c.208.473.343.953.17 1.455-.21.222-.353.337-.67.34-.596.003-1.089-.368-1.489-.777.05-.241.102-.4.234-.609a.95.95 0 0 1 .464-.117c.467-.012.732-.056 1.162-.236z"/><path fill="#F64B64" d="M15.472 155.201c-.078-.247-.129-.695-.046-.943.074-.22.23-.329.446-.384.56-.143 1.084.323 1.478.643-.287.016-.734-.013-.94.219-.154.174-.256.417-.355.626l-.181.076-.24-.281z"/><path fill="#FD7186" d="M183.744 147.225c.182-.328.318-.629.631-.847.143-.023.22-.073.347.018.4.285.536 1.202.606 1.673.15.745.192 1.47.15 2.23-.055.31-.093.739-.297.995-.175.22-.318.238-.575.292-.21-.045-.35-.1-.514-.237-.577-.48-.645-.997-.695-1.71.027-.825.138-1.615.347-2.414"/><path fill="#F64B64" d="M183.397 149.64c.238.348.586.824 1.022.898.282.049.46-.045.71-.15.12-.05.22-.074.348-.09-.054.311-.092.74-.296.996-.175.22-.318.238-.575.292-.21-.045-.35-.1-.514-.237-.577-.48-.645-.997-.695-1.71"/><path fill="#F64B64" d="M183.744 147.225c.182-.328.318-.629.631-.847.143-.023.22-.073.347.018.4.285.536 1.202.606 1.673-.499-.336-1.044-.583-1.584-.844"/><path fill="#FD7186" d="M164.225 166.432c.024-.145.02-.07 0-.246-.057-.494-.114-.906.19-1.331.437-.26 1.459-.164 1.986-.18l.189.074c.524.181 1.278.419 1.526.973.09.202.126.376.043.593-.207.54-.96.69-1.445.82-.573.05-1.323.18-1.866-.018-.372-.136-.46-.355-.623-.685"/><path fill="#F64B64" d="M166.59 164.75c.524.18 1.278.418 1.526.972.09.202.126.376.043.593-.207.54-.96.69-1.445.82.095-.487.428-.764.758-1.101-.295-.18-.58-.356-.85-.573-.135-.314-.094-.385-.032-.712"/><path fill="#F64B64" d="M164.225 166.432c.024-.145.02-.07 0-.246-.057-.494-.114-.906.19-1.331.437-.26 1.459-.164 1.986-.18-.311.05-.444.037-.69.244-.016.204-.004.393.014.597-.352.685-1.007.471-1.5.916"/><path fill="#F6F4EF" d="M152.918 149.495c.275 1.628.432 3.289.63 4.928.07.63.238 1.471-.18 2.014-.279.36-.758.475-1.19.48a8 8 0 0 1-1.061-.062c.15-.46.28-.943.465-1.389.675-2.004 1.123-3.865 1.336-5.971"/><path fill="#9CB8C8" d="M153.549 154.423c.069.63.237 1.471-.182 2.014-.278.36-.757.475-1.189.48a8 8 0 0 1-1.061-.062c.15-.46.28-.943.465-1.389.223.089.487.051.717.006.575-.112.937-.599 1.25-1.05"/><path fill="#F64B64" d="M30.323 166.049c-.294-.104-.597-.205-.877-.344-.384-.191-.666-.408-.798-.828.066-.323.149-.502.428-.694.974-.673 2.278-.525 3.378-.336l-.112 1.117c-.077.46-.145.925-.234 1.383-.597-.087-1.196-.164-1.785-.298"/><path fill="#FD7186" d="M30.323 166.049c.255-.246.412-.563.664-.807.397-.382.846-.308 1.355-.278-.077.46-.145.925-.234 1.383-.597-.087-1.196-.164-1.785-.298"/><path fill="#9CB8C8" d="M62.864 142.361c.007.042.017.083.022.124.103.848.228 2.476-.393 3.126-.617.646-1.584.53-2.395.53l-.084-.18c.384-1.257 1.844-2.773 2.85-3.6"/><path fill="#F64B64" d="M15.094 145.684c.321.015.354-.005.596.199.316.695.047 1.7-.214 2.391-.22.584-.484 1.029-.992 1.394-.244.034-.227.044-.424-.103l-.093-.237c-.031-.585-.037-1.183.054-1.764.125-.795.414-1.407 1.073-1.88"/><path fill="#FD7186" d="M13.967 149.328c-.031-.585-.037-1.183.054-1.764.125-.795.414-1.407 1.073-1.88.185 1.54-.292 2.42-1.127 3.644"/><path fill="#BC2D53" d="M187.486 113.607c.764-.038 1.248-.213 1.91-.586-.181 1.201-.346 2.407-.546 3.604-.436-.674-.898-1.29-1.733-1.474-.281-.06-.588-.06-.874-.067.427-.407 1.014-.929 1.243-1.477"/><path fill="#BC2D53" d="M183.183 152.633c.562.246 1.03.378 1.64.413q-.282.744-.577 1.483c-.596-.548-1.146-.938-1.985-.92-.188.004-.37.034-.555.066.326-.451 1.035-.674 1.477-1.042"/></svg>